<svg width="18" height="16" viewBox="0 0 18 16" fill="none" xmlns="http://www.w3.org/2000/svg">
<path d="M7.9717 2.46608C7.9717 2.35779 7.90599 2.26033 7.8056 2.21972L2.49042 0.0694907C2.31572 -0.00118547 2.125 0.127394 2.125 0.315854V10.6445C2.125 10.7498 2.18718 10.8452 2.28354 10.8877L7.59872 13.2312C7.77438 13.3086 7.9717 13.18 7.9717 12.988V2.46608ZM14.8814 0.266033C14.8814 0.0766872 14.6891 -0.0519198 14.5141 0.0204533L9.19891 2.219C9.09954 2.26011 9.03473 2.35705 9.03473 2.46458V12.9846C9.03473 13.1775 9.23369 13.3061 9.40955 13.227L14.7247 10.8351C14.8201 10.7922 14.8814 10.6974 14.8814 10.5928V0.266033Z" fill="#1C3F39"/>
<path d="M16.4771 0.612305C16.3361 0.612305 16.2009 0.668304 16.1012 0.767983C16.0015 0.867662 15.9455 1.00286 15.9455 1.14382V11.5084L8.50429 14.9101L1.06304 11.5084V1.14382C1.06304 1.00286 1.00704 0.867662 0.907358 0.767983C0.807679 0.668304 0.672485 0.612305 0.531518 0.612305C0.390551 0.612305 0.255357 0.668304 0.155678 0.767983C0.0559991 0.867662 0 1.00286 0 1.14382L0 11.8539C0.00168959 11.9558 0.0326516 12.0551 0.0891953 12.1399C0.145739 12.2247 0.225479 12.2915 0.318911 12.3323L8.29168 15.9466L8.50429 15.9997L8.71689 15.9466L16.6897 12.3323C16.7831 12.2915 16.8628 12.2247 16.9194 12.1399C16.9759 12.0551 17.0069 11.9558 17.0086 11.8539V1.14382C17.0086 1.00286 16.9526 0.867662 16.8529 0.767983C16.7532 0.668304 16.618 0.612305 16.4771 0.612305Z" fill="#1C3F39"/>
</svg>
