<svg width="42" height="42" viewBox="0 0 42 42" fill="none" xmlns="http://www.w3.org/2000/svg">
<rect width="42" height="42" fill="white"/>
<g id="Quran Reading Website" clip-path="url(#clip0_0_1)">
<rect width="1440" height="5759" transform="translate(-255 -5411)" fill="#E9E6D7"/>
<g id="Footer">
<g id="Group 17551">
<g id="Social">
<g id="Group 432">
<circle id="Ellipse 731" cx="21" cy="21" r="21" fill="#D1CDB7"/>
<path id="Vector" d="M31.5 14.8352C30.7191 15.1595 29.8869 15.3745 29.0194 15.4789C29.9119 14.9744 30.5931 14.1816 30.9133 13.226C30.0812 13.6958 29.1624 14.0275 28.1833 14.2127C27.3932 13.4162 26.2671 12.9229 25.0386 12.9229C22.6551 12.9229 20.7362 14.7544 20.7362 16.9998C20.7362 17.3229 20.7651 17.6336 20.8359 17.9293C17.2568 17.764 14.0897 16.14 11.9621 13.6659C11.5907 14.276 11.3728 14.9744 11.3728 15.7262C11.3728 17.1378 12.1406 18.3891 13.2851 19.1135C12.5934 19.1011 11.9149 18.911 11.34 18.6115C11.34 18.6239 11.34 18.6401 11.34 18.6562C11.34 20.6369 12.8323 22.2821 14.7892 22.6611C14.4388 22.7518 14.0569 22.7953 13.6605 22.7953C13.3849 22.7953 13.1066 22.7804 12.8454 22.7258C13.4032 24.3399 14.9861 25.5266 16.8683 25.5651C15.4035 26.6499 13.5437 27.3035 11.5303 27.3035C11.1773 27.3035 10.8386 27.2886 10.5 27.2476C12.4071 28.4119 14.6672 29.0767 17.1045 29.0767C25.0267 29.0767 29.358 22.8637 29.358 17.4782C29.358 17.2981 29.3514 17.1241 29.3423 16.9514C30.1967 16.3773 30.9146 15.6603 31.5 14.8352Z" fill="#1C3F39"/>
</g>
</g>
</g>
</g>
</g>
<defs>
<clipPath id="clip0_0_1">
<rect width="1440" height="5759" fill="white" transform="translate(-255 -5411)"/>
</clipPath>
</defs>
</svg>
