<svg width="42" height="42" viewBox="0 0 42 42" fill="none" xmlns="http://www.w3.org/2000/svg">
<circle cx="21" cy="21" r="21" fill="#F2AC0D"/>
<path d="M12.9219 14.7993C12.9219 14.2554 13.1129 13.8067 13.4949 13.4532C13.8769 13.0996 14.3735 12.9229 14.9848 12.9229C15.5851 12.9229 16.0708 13.0969 16.4419 13.445C16.8239 13.804 17.0149 14.2717 17.0149 14.8483C17.0149 15.3704 16.8294 15.8055 16.4583 16.1536C16.0762 16.5126 15.5742 16.6921 14.952 16.6921H14.9356C14.3353 16.6921 13.8496 16.5126 13.4785 16.1536C13.1074 15.7946 12.9219 15.3432 12.9219 14.7993ZM13.1347 29.0767V18.1769H16.7693V29.0767H13.1347ZM18.7831 29.0767H22.4177V22.9905C22.4177 22.6097 22.4614 22.316 22.5487 22.1093C22.7015 21.7395 22.9334 21.4267 23.2445 21.1711C23.5556 20.9155 23.9458 20.7877 24.4151 20.7877C25.6376 20.7877 26.2488 21.6089 26.2488 23.2515V29.0767H29.8834V22.8273C29.8834 21.2173 29.5014 19.9963 28.7374 19.1641C27.9733 18.3319 26.9637 17.9159 25.7085 17.9159C24.3005 17.9159 23.2036 18.5196 22.4177 19.727V19.7597H22.4013L22.4177 19.727V18.1769H18.7831C18.8049 18.525 18.8158 19.6074 18.8158 21.424C18.8158 23.2406 18.8049 25.7915 18.7831 29.0767Z" fill="#1C3F39"/>
</svg>
