<svg width="105" height="27" viewBox="0 0 105 27" fill="none" xmlns="http://www.w3.org/2000/svg">
<path d="M55.4081 27H52.5764V19.1337C52.4294 19.5174 52.2437 19.8852 52.0194 20.2369C51.8027 20.5887 51.5435 20.9138 51.2418 21.2122C50.9478 21.5107 50.6112 21.7452 50.2321 21.9157C49.8607 22.0862 49.4507 22.1715 49.0019 22.1715C48.0658 22.1715 47.2186 21.8731 46.4604 21.2762C45.7099 20.6686 45.1103 19.7253 44.6615 18.4462C44.2205 17.1565 44 15.4777 44 13.4099C44 11.5979 44.1896 10.0683 44.5687 8.82122C44.9478 7.56347 45.4894 6.61482 46.1934 5.97529C46.9052 5.3251 47.7524 5 48.735 5C49.207 5 49.6402 5.08527 50.0348 5.25581C50.4372 5.4157 50.7969 5.63421 51.1141 5.91134C51.4391 6.18847 51.7215 6.50291 51.9613 6.85465C52.2012 7.20639 52.4023 7.56347 52.5648 7.92587L52.5764 5.31977H55.4081V27ZM49.6286 19.2616C50.2863 19.2616 50.8356 19.0005 51.2766 18.4782C51.7176 17.9452 52.0464 17.2418 52.2631 16.3677C52.4797 15.483 52.588 14.5184 52.588 13.4738C52.588 11.8537 52.3404 10.5213 51.8453 9.47674C51.3578 8.42151 50.619 7.89389 49.6286 7.89389C48.7853 7.89389 48.0812 8.35756 47.5164 9.28488C46.9594 10.2122 46.6809 11.6085 46.6809 13.4738C46.6809 15.3285 46.94 16.7568 47.4584 17.7587C47.9845 18.7607 48.7079 19.2616 49.6286 19.2616Z" fill="#1C3F39"/>
<path d="M63.0012 22.1715C62.4132 22.1715 61.8445 22.0543 61.2952 21.8198C60.7536 21.5746 60.2662 21.2229 59.8329 20.7645C59.3996 20.2955 59.0553 19.72 58.8 19.0378C58.5447 18.3556 58.417 17.5615 58.417 16.6555V5.31977H61.2488V16.2078C61.2488 17.1032 61.4538 17.8387 61.8639 18.4142C62.2816 18.9898 62.9083 19.2776 63.7439 19.2776C64.5022 19.2776 65.1095 19.0058 65.566 18.4622C66.0225 17.9079 66.2507 17.1139 66.2507 16.0799V5.31977H69.0592V21.8517H66.889L66.5757 18.6221C66.4287 19.5281 66.1695 20.2422 65.7981 20.7645C65.4345 21.2762 65.0051 21.6386 64.5099 21.8517C64.0225 22.0649 63.5196 22.1715 63.0012 22.1715Z" fill="#1C3F39"/>
<path d="M72.1912 21.8517V5.31977H74.8953V8.90116C75.0887 8.08043 75.3634 7.38227 75.7193 6.80668C76.0829 6.22044 76.5085 5.77277 76.9959 5.46366C77.4833 5.15455 78.0133 5 78.5858 5C78.7251 5 78.8605 5.01066 78.992 5.03198C79.1236 5.05329 79.2203 5.0906 79.2822 5.14389V8.86918C79.1971 8.81589 79.0849 8.77858 78.9456 8.75727C78.8141 8.73595 78.698 8.72529 78.5974 8.72529C78.0172 8.66134 77.5027 8.69331 77.0539 8.82122C76.6129 8.94913 76.2377 9.16763 75.9282 9.47674C75.6265 9.77519 75.3982 10.1589 75.2435 10.6279C75.0887 11.0862 75.0114 11.6245 75.0114 12.2427V21.8517H72.1912Z" fill="#1C3F39"/>
<path d="M84.6131 22.1715C83.8471 22.1715 83.1585 21.9796 82.5473 21.5959C81.9438 21.2015 81.468 20.642 81.1198 19.9171C80.7794 19.1817 80.6092 18.2917 80.6092 17.2471C80.6092 15.4244 81.085 14.0494 82.0366 13.1221C82.996 12.1948 84.5241 11.7098 86.6208 11.6672L88.408 11.6032V10.484C88.408 9.60998 88.2185 8.92781 87.8394 8.4375C87.468 7.93653 86.8877 7.69138 86.0985 7.70203C85.5183 7.71269 84.9844 7.90455 84.497 8.27761C84.0173 8.64002 83.7001 9.25291 83.5453 10.1163H81.143C81.1894 8.98643 81.4254 8.04312 81.851 7.28634C82.2842 6.51889 82.8761 5.94864 83.6266 5.57558C84.3771 5.19186 85.2436 5 86.2262 5C87.3713 5 88.3036 5.20785 89.0231 5.62354C89.7427 6.03924 90.2726 6.64147 90.6131 7.43023C90.9535 8.20833 91.1237 9.15165 91.1237 10.2602V21.8517H88.7446L88.5241 18.8779C88.0908 20.125 87.5415 20.9884 86.8761 21.468C86.2185 21.937 85.4641 22.1715 84.6131 22.1715ZM85.5299 19.5334C85.878 19.5334 86.2223 19.4482 86.5628 19.2776C86.9032 19.0964 87.2127 18.8566 87.4912 18.5581C87.7697 18.249 87.9902 17.9079 88.1527 17.5349C88.3229 17.1618 88.408 16.7728 88.408 16.3677V13.7616L86.9341 13.7936C86.2069 13.8043 85.5724 13.9109 85.0308 14.1134C84.4893 14.3159 84.0637 14.641 83.7542 15.0887C83.4525 15.5257 83.3016 16.1119 83.3016 16.8474C83.3016 17.6894 83.5144 18.3503 83.9399 18.8299C84.3655 19.2989 84.8955 19.5334 85.5299 19.5334Z" fill="#1C3F39"/>
<path d="M94.4274 21.8517V5.31977H97.1895V7.68605C97.3752 7.25969 97.6267 6.84932 97.9439 6.45494C98.2688 6.06056 98.6673 5.7408 99.1392 5.49564C99.6112 5.25049 100.164 5.12791 100.799 5.12791C101.542 5.12791 102.23 5.33043 102.865 5.73547C103.507 6.1405 104.021 6.77471 104.408 7.63808C104.803 8.50145 105 9.61531 105 10.9797V21.8517H102.168V11.4433C102.168 10.3561 101.952 9.55136 101.518 9.02907C101.085 8.49612 100.54 8.22965 99.882 8.22965C99.4333 8.22965 99.0077 8.33624 98.6054 8.54942C98.2031 8.75194 97.8743 9.06637 97.6189 9.49273C97.3714 9.90843 97.2476 10.4307 97.2476 11.0596V21.8517H94.4274Z" fill="#1C3F39"/>
<path d="M35.6172 18.9048C30.6358 18.2586 24.0071 18.5311 17.8098 25.4999C11.6126 18.5311 4.98384 18.2586 0.00248718 18.9048L3.45414 15.3777C10.2947 14.4122 15.8879 17.4151 17.8098 19.0373C19.7318 17.4151 25.325 14.4122 32.1655 15.3777L35.6172 18.9048Z" fill="#F2AC0D"/>
<path d="M21.1953 22.3462C20.0606 23.2018 18.9277 24.2417 17.8088 25.4998C16.69 24.2417 15.5571 23.2018 14.4223 22.3462L17.8088 19.0371L21.1953 22.3462Z" fill="#D29303"/>
<path d="M29.3672 13.3946C29.3412 12.1579 27.8832 9.21609 22.8456 6.24819C21.056 5.19381 17.8705 2.96789 17.808 0C17.7455 2.96789 14.5601 5.19381 12.7704 6.24819C7.73282 9.21609 6.27491 12.1579 6.24887 13.3946C8.51384 12.965 13.942 13.7851 17.808 17.1044C21.6741 13.7851 27.1022 12.965 29.3672 13.3946Z" fill="#26534C"/>
</svg>
