<svg width="11" height="16" viewBox="0 0 11 16" fill="none" xmlns="http://www.w3.org/2000/svg">
<path d="M5.07887 10.9206C5.88686 10.9197 6.66149 10.5983 7.23282 10.027C7.80416 9.45563 8.12555 8.68101 8.12649 7.87302V3.04762C8.12649 2.23934 7.8054 1.46417 7.23386 0.892627C6.66232 0.321088 5.88715 0 5.07887 0C4.27059 0 3.49542 0.321088 2.92388 0.892627C2.35234 1.46417 2.03125 2.23934 2.03125 3.04762V7.87302C2.03219 8.68101 2.35358 9.45563 2.92492 10.027C3.49625 10.5983 4.27088 10.9197 5.07887 10.9206Z" fill="#1C3F39"/>
<path d="M9.65079 5.07959C9.51608 5.07959 9.38688 5.1331 9.29163 5.22836C9.19637 5.32362 9.14286 5.45281 9.14286 5.58753V7.87324C9.14286 8.95095 8.71474 9.98451 7.95269 10.7466C7.19064 11.5086 6.15707 11.9367 5.07936 11.9367C4.00166 11.9367 2.96809 11.5086 2.20604 10.7466C1.44399 9.98451 1.01587 8.95095 1.01587 7.87324V5.58753C1.01587 5.45281 0.962358 5.32362 0.867102 5.22836C0.771845 5.1331 0.64265 5.07959 0.507936 5.07959C0.373223 5.07959 0.244028 5.1331 0.148771 5.22836C0.0535147 5.32362 0 5.45281 0 5.58753V7.87324C0.00151839 9.13201 0.469754 10.3455 1.31415 11.279C2.15855 12.2126 3.31913 12.7998 4.57143 12.9272V14.9844H2.53968C2.40497 14.9844 2.27577 15.0379 2.18052 15.1331C2.08526 15.2284 2.03175 15.3576 2.03175 15.4923C2.03175 15.627 2.08526 15.7562 2.18052 15.8515C2.27577 15.9467 2.40497 16.0002 2.53968 16.0002H7.61905C7.75376 16.0002 7.88296 15.9467 7.97821 15.8515C8.07347 15.7562 8.12698 15.627 8.12698 15.4923C8.12698 15.3576 8.07347 15.2284 7.97821 15.1331C7.88296 15.0379 7.75376 14.9844 7.61905 14.9844H5.5873V12.9272C6.83963 12.7999 8.00023 12.2126 8.84464 11.2791C9.68905 10.3455 10.1573 9.13202 10.1587 7.87324V5.58753C10.1587 5.45281 10.1052 5.32362 10.01 5.22836C9.9147 5.1331 9.78551 5.07959 9.65079 5.07959Z" fill="#1C3F39"/>
</svg>
